<svg width="50" height="50" viewBox="0 0 50 50" fill="none" xmlns="http://www.w3.org/2000/svg">
<rect width="50" height="50" rx="25" fill="#A8A8A8"/>
<path d="M25 12C27.5196 12 29.9359 13.0009 31.7175 14.7825C33.4991 16.5641 34.5 18.9804 34.5 21.5C34.5 24.0196 33.4991 26.4359 31.7175 28.2175C29.9359 29.9991 27.5196 31 25 31C22.4804 31 20.0641 29.9991 18.2825 28.2175C16.5009 26.4359 15.5 24.0196 15.5 21.5C15.5 18.9804 16.5009 16.5641 18.2825 14.7825C20.0641 13.0009 22.4804 12 25 12ZM25 35.75C35.4975 35.75 44 40.0012 44 45.25V50H6V45.25C6 40.0012 14.5025 35.75 25 35.75Z" fill="white"/>
</svg>
